<svg xmlns="http://www.w3.org/2000/svg" viewBox="0 0 64 64">
  <defs>
    <radialGradient id="ocean" cx="35%" cy="30%" r="70%">
      <stop offset="0%" stop-color="#7dd3fc"/>
      <stop offset="55%" stop-color="#38bdf8"/>
      <stop offset="100%" stop-color="#0f172a"/>
    </radialGradient>
    <linearGradient id="land" x1="0" y1="0" x2="1" y2="1">
      <stop offset="0%" stop-color="#86efac"/>
      <stop offset="100%" stop-color="#22c55e"/>
    </linearGradient>
  </defs>
  <circle cx="32" cy="32" r="28" fill="url(#ocean)"/>
  <ellipse cx="22" cy="24" rx="10" ry="6" fill="url(#land)" transform="rotate(-18 22 24)"/>
  <path d="M38 18c5 1 9 5 9 9 0 3-2 5-5 6-3 1-5 3-5 6 0 4 4 5 4 8-1 2-3 3-6 3-6 0-11-5-11-11 0-3 2-6 4-8 3-3 6-4 10-13Z" fill="url(#land)" opacity="0.95"/>
  <path d="M14 36c4 0 6 2 8 4 2 2 4 3 7 3 2 0 5-1 7-3 1 4-2 9-7 11-8 3-18-2-21-11 2-2 4-4 6-4Z" fill="url(#land)" opacity="0.92"/>
  <circle cx="32" cy="32" r="28" fill="none" stroke="rgba(255,255,255,0.35)" stroke-width="2"/>
  <path d="M8 32h48M32 8c7 7 11 15 11 24S39 49 32 56M32 8c-7 7-11 15-11 24s4 17 11 24" fill="none" stroke="rgba(255,255,255,0.2)" stroke-width="1.5"/>
</svg>
